<svg width="100" height="95" viewBox="0 0 100 95" fill="none" xmlns="http://www.w3.org/2000/svg">
<rect width="100" height="95" fill="#202024"/>
<path opacity="0.5" d="M82.0669 17.4105L66.3879 72.9541C66.3082 73.2062 65.9893 73.2819 65.8033 73.1054L55.3063 63.1464L63.1724 35.3115C63.2521 35.0594 63.0129 34.8325 62.7472 34.9081L33.4088 42.3711L22.965 32.4625C22.779 32.286 22.8587 31.9834 23.1245 31.9078L81.6417 17.0071C81.9075 16.9567 82.1467 17.1836 82.0669 17.4105Z" fill="#00B37E"/>
<path opacity="0.5" d="M55.3058 63.1459L51.2665 77.5171C51.1868 77.7693 50.8679 77.8449 50.6818 77.6684L18.1014 46.7828C17.9154 46.6063 17.9951 46.3038 18.2608 46.2282L33.4084 42.3706L55.3058 63.1459Z" fill="#00B37E"/>
<path d="M63.1711 35.311L55.3051 63.1459L33.4076 42.3706L62.7459 34.9076C63.0117 34.832 63.2509 35.0589 63.1711 35.311Z" fill="#00B37E"/>
</svg>
